<?xml version="1.0" encoding="UTF-8" standalone="no"?>
<svg
   xmlns:dc="http://purl.org/dc/elements/1.1/"
   xmlns:cc="http://creativecommons.org/ns#"
   xmlns:rdf="http://www.w3.org/1999/02/22-rdf-syntax-ns#"
   xmlns:svg="http://www.w3.org/2000/svg"
   xmlns="http://www.w3.org/2000/svg"
   xmlns:xlink="http://www.w3.org/1999/xlink"
   xmlns:sodipodi="http://sodipodi.sourceforge.net/DTD/sodipodi-0.dtd"
   xmlns:inkscape="http://www.inkscape.org/namespaces/inkscape"
   id="svg57"
   viewBox="0 0 48 48"
   version="1.1"
   inkscape:version="0.48.3.1 r9886"
   width="100%"
   height="100%"
   sodipodi:docname="user-trash-full.svg"
   inkscape:export-filename="user-trash-full.png"
   inkscape:export-xdpi="60"
   inkscape:export-ydpi="60">
  <sodipodi:namedview
     pagecolor="#ffffff"
     bordercolor="#666666"
     borderopacity="1"
     objecttolerance="10"
     gridtolerance="10"
     guidetolerance="10"
     inkscape:pageopacity="0"
     inkscape:pageshadow="2"
     inkscape:window-width="1190"
     inkscape:window-height="724"
     id="namedview101"
     showgrid="false"
     inkscape:zoom="4.9166667"
     inkscape:cx="-15.457627"
     inkscape:cy="24"
     inkscape:window-x="176"
     inkscape:window-y="118"
     inkscape:window-maximized="0"
     inkscape:current-layer="svg57" />
  <defs
     id="defs3">
    <radialGradient
       id="radialGradient6719"
       xlink:href="#linearGradient5060"
       gradientUnits="userSpaceOnUse"
       cy="486.65"
       cx="605.71"
       gradientTransform="matrix(-2.7744 0 0 1.9697 112.76 -872.89)"
       r="117.14" />
    <linearGradient
       id="linearGradient6715"
       y2="609.51"
       gradientUnits="userSpaceOnUse"
       x2="302.86"
       gradientTransform="matrix(2.7744 0 0 1.9697 -1892.2 -872.89)"
       y1="366.65"
       x1="302.86">
      <stop
         id="stop5050"
         stop-opacity="0"
         offset="0" />
      <stop
         id="stop5056"
         offset=".5" />
      <stop
         id="stop5052"
         stop-opacity="0"
         offset="1" />
    </linearGradient>
    <linearGradient
       id="linearGradient234"
       y2="137.97"
       xlink:href="#linearGradient177"
       gradientUnits="userSpaceOnUse"
       y1="67.365"
       gradientTransform="scale(1.2444 .80362)"
       x2="136.99"
       x1="81.308" />
    <linearGradient
       id="linearGradient477"
       y2="72.609"
       gradientUnits="userSpaceOnUse"
       y1="72.609"
       x2="192.39"
       x1="78.246">
      <stop
         id="stop478"
         stop-color="#e4e9ea"
         offset="0" />
      <stop
         id="stop479"
         stop-color="#85898A"
         offset="1" />
    </linearGradient>
    <linearGradient
       id="linearGradient177">
      <stop
         id="stop178"
         stop-color="#fff"
         offset="0" />
      <stop
         id="stop179"
         stop-color="#b0b0b0"
         offset="1" />
    </linearGradient>
    <linearGradient
       id="linearGradient4975"
       x1="34.893"
       gradientUnits="userSpaceOnUse"
       y1="36.423"
       gradientTransform="translate(-18.018,-13.571)"
       x2="45.919"
       y2="48.548">
      <stop
         id="stop1324"
         stop-color="#729fcf"
         offset="0" />
      <stop
         id="stop1326"
         stop-color="#5187d6"
         offset="1" />
    </linearGradient>
    <linearGradient
       id="linearGradient152"
       y2="69.461"
       gradientUnits="userSpaceOnUse"
       y1="27.377"
       gradientTransform="matrix(3.495 0 0 .34432 -2.9721 -.034081)"
       x2="7.5291"
       x1="7.3739">
      <stop
         id="stop150"
         offset="0" />
      <stop
         id="stop151"
         stop-opacity="0"
         offset="1" />
    </linearGradient>
    <linearGradient
       id="linearGradient160"
       y2="6.8898"
       gradientUnits="userSpaceOnUse"
       y1="6.8898"
       gradientTransform="matrix(.77249 0 0 1.5578 -2.7953 -.16666)"
       x2="60.686"
       x1="55.208">
      <stop
         id="stop158"
         stop-color="#babdb6"
         offset="0" />
      <stop
         id="stop159"
         stop-color="#f1f5ec"
         offset="1" />
    </linearGradient>
    <linearGradient
       id="linearGradient164"
       y2="21.17"
       gradientUnits="userSpaceOnUse"
       y1="21.17"
       gradientTransform="matrix(2.3749 0 0 .50671 -2.7953 -.16666)"
       x2="19.738"
       x1="2.9326">
      <stop
         id="stop162"
         stop-color="#575955"
         offset="0" />
      <stop
         id="stop163"
         stop-color="#7c7e79"
         offset="1" />
    </linearGradient>
    <radialGradient
       id="radialGradient605"
       xlink:href="#linearGradient477"
       gradientUnits="userSpaceOnUse"
       cy="20.453"
       cx="16.281"
       gradientTransform="matrix(2.2023 0 0 .57457 -13.836 .65247)"
       r="5.6435" />
    <linearGradient
       id="linearGradient606"
       y2="14.749"
       gradientUnits="userSpaceOnUse"
       y1="11.165"
       gradientTransform="matrix(1.3998 0 0 .90398 -3.9931 .75190)"
       x2="18.087"
       x1="14.249">
      <stop
         id="stop455"
         stop-color="#fff"
         offset="0" />
      <stop
         id="stop457"
         stop-color="#bebebe"
         offset=".5" />
      <stop
         id="stop456"
         stop-color="#b0b0b0"
         offset="1" />
    </linearGradient>
    <linearGradient
       id="linearGradient607"
       y2="122.61"
       xlink:href="#linearGradient177"
       gradientUnits="userSpaceOnUse"
       y1="116.66"
       gradientTransform="scale(1.2444 .80362)"
       x2="132.99"
       x1="128.35" />
    <linearGradient
       id="linearGradient608"
       y2="14.745"
       xlink:href="#linearGradient177"
       gradientUnits="userSpaceOnUse"
       y1="8.7252"
       gradientTransform="matrix(1.3998 0 0 .90398 -3.9931 .79738)"
       x2="20.136"
       x1="9.9626" />
    <linearGradient
       id="linearGradient609"
       y2="10.115"
       xlink:href="#linearGradient477"
       gradientUnits="userSpaceOnUse"
       y1="2.3489"
       gradientTransform="matrix(1.1249 0 0 1.1249 -3.9931 .75190)"
       x2="40.437"
       x1="24.163" />
    <linearGradient
       id="linearGradient610"
       y2="24.077"
       gradientUnits="userSpaceOnUse"
       y1="18.817"
       gradientTransform="matrix(-1.4494 .28655 -.46938 .96580 -2.7006 .45362)"
       x2="-36.301"
       x1="-32.4">
      <stop
         id="stop514"
         stop-color="#696969"
         offset="0" />
      <stop
         id="stop515"
         stop-color="#fff"
         offset="1" />
    </linearGradient>
    <linearGradient
       id="linearGradient611"
       y2="20.664"
       xlink:href="#linearGradient477"
       gradientUnits="userSpaceOnUse"
       y1="13.132"
       gradientTransform="matrix(.82649 .76306 .76306 -.82649 -30.959 -9.4957)"
       x2="45.131"
       x1="36.155" />
    <linearGradient
       id="linearGradient612"
       y2="9.3615"
       xlink:href="#linearGradient177"
       gradientUnits="userSpaceOnUse"
       y1="14.036"
       gradientTransform="matrix(1.3998 0 0 .90398 -2.8604 .22788)"
       x2="13.763"
       x1="16.552" />
    <linearGradient
       id="linearGradient613"
       y2="14.745"
       gradientUnits="userSpaceOnUse"
       y1="8.7252"
       gradientTransform="matrix(1.0273 -.13461 .52845 .53648 8.1222 4.8634)"
       x2="20.136"
       x1="9.9626">
      <stop
         id="stop509"
         stop-color="#b0b0b0"
         offset="0" />
      <stop
         id="stop510"
         stop-color="#b0b0b0"
         offset="1" />
    </linearGradient>
    <radialGradient
       id="radialGradient640"
       gradientUnits="userSpaceOnUse"
       cy="8.9303"
       cx="39.148"
       gradientTransform="matrix(.87882 0 0 1.0257 1.2433 2.8501)"
       r="13.266">
      <stop
         id="stop642"
         stop-color="#f9feff"
         offset="0" />
      <stop
         id="stop643"
         stop-color="#afb4b6"
         offset="1" />
    </radialGradient>
    <linearGradient
       id="linearGradient1068"
       y2="37.721"
       gradientUnits="userSpaceOnUse"
       x2="30.587"
       gradientTransform="scale(1.1756 .85060)"
       y1="33.139"
       x1="10.861">
      <stop
         id="stop1066"
         stop-color="#b5c051"
         offset="0" />
      <stop
         id="stop1067"
         stop-color="#858e3f"
         offset="1" />
    </linearGradient>
    <linearGradient
       id="linearGradient374"
       y2="48.805"
       gradientUnits="userSpaceOnUse"
       y1="25.335"
       gradientTransform="scale(1.1756 .85060)"
       x2="25.312"
       x1="17.574">
      <stop
         id="stop369"
         stop-color="#fff"
         stop-opacity=".10309"
         offset="0" />
      <stop
         id="stop372"
         stop-color="#fff"
         stop-opacity="0"
         offset="1" />
    </linearGradient>
    <linearGradient
       id="linearGradient384"
       y2="23.601"
       gradientUnits="userSpaceOnUse"
       y1="38.963"
       gradientTransform="scale(1.2157 .82259)"
       x2="19.858"
       x1="19.977">
      <stop
         id="stop382"
         stop-color="#fff"
         offset="0" />
      <stop
         id="stop383"
         stop-color="#fff"
         stop-opacity="0"
         offset="1" />
    </linearGradient>
  </defs>
  <g
     id="layer1">
    <g
       id="g6707"
       transform="matrix(.022624 0 0 .020868 44.258 41.87)">
      <rect
         id="rect6709"
         style="color:black"
         height="478.36"
         width="1339.6"
         y="-150.7"
         x="-1559.3"
         fill="url(#linearGradient6715)"
         opacity=".40206" />
      <path
         id="path6711"
         d="m-219.62-150.68v478.33c142.88 0.9 345.4-107.17 345.4-239.2 0-132.02-159.44-239.13-345.4-239.13z"
         style="color:black"
         fill="url(#radialGradient6717)"
         opacity=".40206" />
      <path
         id="path6713"
         d="m-1559.3-150.68v478.33c-142.8 0.9-345.4-107.17-345.4-239.2 0-132.02 159.5-239.13 345.4-239.13z"
         style="color:black"
         fill="url(#radialGradient6719)"
         opacity=".40206" />
    </g>
    <path
       id="path1751"
       d="m3.8367 16.81c-0.0441-0.035 1.732 25.224 1.7325 25.232 0.1666 2.522 1.5652 3.444 3.1307 3.448 0.056 0 29.369-0.003 29.994-0.006 2.636-0.011 3.282-1.616 3.456-3.37 0.014-0.035 1.789-25.269 1.803-25.304h-40.116z"
       stroke-width="1.25"
       stroke="#3465a4"
       fill-rule="evenodd"
       fill="url(#linearGradient4975)" />
    <path
       id="path1841"
       d="m7.5385 4.7306c-1.0443 0.0024-1.9184 0.0264-2.3944 1.0136-0.0828 0.1716-2.605 7.1358-2.7262 7.4008-1.0381 2.274-0.0808 5.138 1.9243 5.119 0.3813-0.004 39.51 0.018 40.117 0 1.707-0.049 1.925-3.366 1.191-4.858-0.042-0.084-3.452-7.7567-3.539-7.8926-0.402-0.6069-1.303-0.8729-1.972-0.848-0.132 0.005-32.47 0.0649-32.6 0.0652z"
       stroke-width="1.25"
       stroke="#3465a4"
       fill-rule="evenodd"
       fill="url(#linearGradient4975)" />
    <path
       id="path1864"
       style="color:#000000"
       d="m7.7204 6.3901c-0.9849-0.0128-1.049-0.0509-1.2707 0.6461-0.0512 0.1609-2.1132 6.4958-2.194 6.7408-0.2749 0.836 0.1138 1.057 1.0677 1.04 0.3379-0.006 37.347 0 37.885 0 0.764 0 0.991-0.252 0.818-0.845-0.07-0.242-2.941-7.005-3.018-7.1255-0.356-0.5379-0.295-0.5363-0.917-0.5439-0.117-0.0014-32.255 0.0889-32.371 0.0875z"
       display="block"
       fill-rule="evenodd"
       fill="url(#linearGradient164)" />
    <path
       id="path1880"
       style="color:#000000"
       d="m7.1914 6.387c-0.3708 0.0283-0.5492 0.1382-0.7045 0.6262-0.0511 0.1609-2.1109 6.4858-2.1917 6.7318-0.2749 0.836 0.0898 1.061 1.0437 1.044 0.0165-0.001 1.9533 0 2.1366 0l-0.2841-8.402z"
       display="block"
       fill-rule="evenodd"
       fill="#2e3436" />
    <path
       id="path1888"
       style="color:#000000"
       d="m40.143 6.2999c0.451 0.0039 0.584-0.0052 0.872 0.5395 0.039 0.0745 2.874 6.7936 2.976 7.0386 0.346 0.948-0.313 0.928-1.359 0.955-0.199 0-2.549-0.022-2.78-0.022l0.291-8.5111z"
       display="block"
       fill-rule="evenodd"
       fill="url(#linearGradient160)" />
    <path
       id="path1893"
       d="m43.188 18.931l-35.988-0.023c27.114 0.63 32.441 3.609 35.746 3.457l0.242-3.434z"
       style="color:#000000"
       display="block"
       fill="url(#linearGradient152)" />
    <g
       id="g144"
       transform="matrix(1.42 0 0 1.42 -67.254 -7.4847)"
       fill-rule="evenodd"
       fill-opacity=".4881"
       fill="#fff">
      <path
         id="path41"
         d="m64.131 25.325l3.797 0.29 1.468-3.574-1.737 1.221s-0.745-1.738-1.28-1.878c-0.536-0.139-2.82-0.093-2.82-0.093 0.727 0.18 1.291 1.429 1.3 1.443 0.227 0.37 0.861 1.614 0.861 1.614l-1.589 0.977z" />
      <path
         id="path130"
         d="m64.601 22.853l-1.257 2.397-2.584-1.629s1.172-2.211 2.095-2.211c0.931 0 1.347 0.802 1.746 1.443z"
         style="color:#000000"
         fill-opacity=".30952" />
      <path
         id="path139"
         d="m66.451 28.546l-2.448 2.925 2.336 3.017 0.043-1.9s1.721 0.162 2.116-0.225c0.395-0.388 2.038-2.342 2.038-2.342-0.528 0.531-1.889 0.374-1.905 0.374-0.434 0.005-2.151-0.035-2.151-0.035l-0.029-1.814z" />
      <path
         id="path140"
         d="m68.748 30.061l-1.411-2.31 2.726-1.379s1.295 2.141 0.821 2.933c-0.479 0.799-1.381 0.744-2.136 0.756z"
         style="color:#000000"
         fill-opacity=".30952" />
      <path
         id="path142"
         d="m62.17 28.376l-1.208-3.183-3.524 0.249 1.446 1.054s-0.999 1.41-0.86 1.946c0.139 0.535 0.923 2.754 0.923 2.754-0.197-0.722 0.618-1.823 0.626-1.838 0.212-0.378 1.103-1.846 1.103-1.846l1.494 0.864z" />
      <path
         id="path143"
         d="m59.753 29.661l2.706-0.071-0.164 3.051s-2.502 0.054-2.952-0.752c-0.454-0.813 0.044-1.568 0.41-2.228z"
         style="color:#000000"
         fill-opacity=".30952" />
    </g>
    <path
       id="path344"
       d="m41.625 23.652c-5.326 2.334-12.621 4.669-18.569 4.719-6.54 0.054-11.358 3.16-16.24 5.544 0.195 2.88 0.4097 4.891 0.6748 8.117 0.1323 1.608 0.638 1.57 2.9402 1.57 9.112 0 21.066 0.013 28.258 0.013 1.76 0 1.559-1.252 1.654-2.45 0.461-5.803 0.875-11.689 1.282-17.513z"
       fill-rule="evenodd"
       fill="url(#linearGradient374)" />
    <path
       id="path375"
       d="m5.2099 19.403c-0.0514 0 0.8392 12.675 1.5467 21.565 0.1826 2.282 0.5536 3.211 1.9912 3.211 11.851 0 28.694 0.085 29.267 0.083 2.775-0.01 2.723-1.026 2.953-3.184 0.083-0.786 1.537-21.587 1.523-21.587-9.93 0-25.012-0.057-37.281-0.088z"
       stroke-opacity=".28571"
       stroke-width="1.14"
       stroke="url(#linearGradient384)"
       fill="none" />
  </g>
  <g
     id="layer2">
    <path
       id="path614"
       style="color:#000000"
       d="m14.684 0.65455c0.161-0.19335 0.117-0.18599-0.327 0.14835-1.776 1.3374-4.7172 4.0351-4.7172 4.0351s0.2503 0.7924-0.4748 2.0175c-0.725 1.225-2.9076-0.5341-2.9076-0.5341-0.7928-0.5341-0.2914 1.4211 0.6824 3.5604-1.0304 0.7712-1.7801 1.5362-1.7801 2.1062 0 1.35-0.0915 1.223-0.1781 1.484-0.5439 0.071-1.1588 0.083-2.0768 0 1.9979-0.104 3.2317-1.74 3.7235-1.484 0.0506 0.032-1.2629 1.378-1.2016 1.38-0.0206 0.035-0.5637 0.43-0.5637 0.43l12.313-0.059c-0.001 0.01 0.002 0.02 0 0.029h11.601c-0.025 0.036-0.401-0.207-0.401-0.207l1.676 0.207h4.035c0.016 0.004-0.016 0.028 0 0.03 0 0 2.791 0.774 2.493 2.166-0.299 1.392-1.009 1.81-1.009 1.81s0.314 3.954 0.712 6.141c0.398 2.188-0.294-3.675 1.098-4.272 1.392-0.596 5.055 0.993 6.646-1.691 1.591-2.685 1.11-2.278 0.712-3.471-0.011-0.032-0.077-0.086-0.089-0.119h0.208c0.565-0.679 1.206-1.469 2.195-3.115-2.435 2.062-2.33 2.066-2.789 2.551-0.315-0.629-0.804-1.367-1.543-1.899l0.149-0.029s-0.144-0.082 0.652-1.721c0.797-1.6391-5.2-3.8503-3.975-2.6111 0.666 0.674-0.934 1.7457-2.671 2.4921-0.207-0.1576-2.107-1.5407-3.738-2.1954-0.336-0.3317-0.454-0.6017-0.86-0.9494 4.191-2.9436-3.398-1.9228-8.189-5.0142 3.317 2.1767 3.404 4.4972 2.255 6.468-1.28-0.2959-2.326-0.7628-2.018-1.3945 0.597-1.222-2.273 0.9281-2.967 2.5516-0.126 0.0077-0.223-0.1038-0.356-0.0594-0.009-0.4688 0.064-0.9156-0.059-1.3944-0.753-2.917-3.361-2.3692-5.578-0.1187-0.978-1.3831-2.706-2.3187-3.115-3.234-0.464-1.0369 1.948-3.455 2.433-4.035zm3.975 8.9898c0.183 0-0.047 0.4406-0.148 0.7416-0.05 0.008-0.097 0.023-0.148 0.03-0.028-0.4369 0.012-0.7716 0.296-0.7716zm17.743 0.5936c-0.276 0.103-0.503 0.281-0.772 0.356-0.047-0.071-0.158-0.166-0.207-0.238l0.979-0.118z"
       stroke-linejoin="round"
       stroke-linecap="round"
       stroke-width="1.1868"
       stroke="#6d6d6d"
       fill="none" />
    <path
       id="path506"
       d="m22.583 12.1l14.463-1.962s-5.047-3.8691-5.811-2.3032c-0.765 1.5658-7.661 0.6707-6.897-0.8952 0.765-1.5658-4.21 2.4171-2.931 3.7154 1.279 1.298 1.176 1.445 1.176 1.445z"
       style="color:#000000"
       fill-rule="evenodd"
       fill="url(#linearGradient613)" />
    <path
       id="path459"
       d="m14.986 8.2501c2.286-2.5851 5.17-3.2811 5.965-0.1989 0.796 3.0818-1.193 6.6618-1.789 5.2698-0.597-1.392-1.293-3.6789-0.498-3.6789 0.796 0-1.69 3.5789-1.69 3.5789l-1.988-4.9709z"
       style="color:#000000"
       fill-rule="evenodd"
       fill="url(#linearGradient612)" />
    <path
       id="path504"
       d="m6.2634 6.3236s2.1804 1.7424 2.9055 0.5173c0.725-1.225 0.4835-1.9894 0.4835-1.9894s2.9166-2.7197 4.6926-4.0571c1.776-1.3373-2.714 2.5006-2.096 3.8832 0.618 1.3825 4.4 2.7092 3.748 5.7604-0.653 3.052-0.748 2.422-1.85 3.029-1.101 0.607-4.091 1.5-6.1026-1.304-2.0117-2.8046-2.8655-6.5701-1.781-5.8394z"
       style="color:#000000"
       fill="url(#linearGradient611)" />
    <path
       id="path511"
       d="m42.868 11.88l-14.435 2.365c-0.148-0.415 3.649-4.8791 4.874-3.64 1.225 1.239 7.473-1.814 6.248-3.0532s4.762 0.9439 3.966 2.5832c-0.797 1.638-0.653 1.745-0.653 1.745z"
       style="color:#000000"
       fill-rule="evenodd"
       fill="url(#linearGradient610)" />
    <path
       id="path458"
       d="m19.262 8.9416l0.995 0.8948-7.358 4.1756 6.363-5.0704z"
       fill-rule="evenodd"
       fill="#fff" />
    <path
       id="path355"
       d="m24.09 1.8593c9.484 6.2235-5.72 15.117-8.225 9.3507 1.403 1.034 1.499 2.105 1.3 3.164h22.322c-0.813-0.242-1.53-0.522-2.812-0.563 1.048-0.344-0.519-3.609-4.394-6.9249 4.192-2.9435-3.4-1.9354-8.191-5.0268zm22.955 9.3857c-2.977 2.521-2.513 2.245-3.41 3.129h1.23c0.566-0.679 1.191-1.482 2.18-3.129z"
       fill="url(#linearGradient609)" />
    <path
       id="path442"
       d="m4.8558 14.424l19.786-0.099s-1.492-6.7609-4.276-4.5735c-2.784 2.1875-10.042-0.4972-7.258-2.6845 2.784-2.1874-7.9539 2.7839-7.9539 4.971 0 2.188-0.2983 2.386-0.2983 2.386z"
       style="color:#000000"
       fill-rule="evenodd"
       fill="url(#linearGradient608)" />
    <g
       id="g378"
       style="color:#000000"
       transform="matrix(.27321 0 0 .27321 -37.639 -13.129)"
       fill-rule="evenodd"
       fill="url(#linearGradient234)">
      <path
         id="path379"
         d="m163.67 88.723c1.03 3.487-7.47 9.356-15.24 8.653 7.31-0.381 4.75 0.926 6.55 1.863 2.16 1.341 13.89-3.705 8.69-10.516z"
         style="color:#000000"
         fill="url(#linearGradient607)" />
    </g>
    <path
       id="path448"
       d="m20.764 10.203c-1.491 0.597-2.784 3.48-5.27 3.579-2.485 0.1 5.27 0.696 6.065 0 0.796-0.696-0.795-3.579-0.795-3.579z"
       style="color:#000000"
       fill-rule="evenodd"
       fill="url(#linearGradient606)" />
    <path
       id="path491"
       d="m19.869 14.28h10.34s1.691-2.983-2.187-2.784-2.585 1.392-4.574 1.789c-1.988 0.398-3.579 0.995-3.579 0.995z"
       style="color:#000000"
       fill="url(#radialGradient605)" />
    <path
       id="path498"
       d="m34.087 14.379s2.784 0.199 2.486 1.591c-0.299 1.392-0.995 1.789-0.995 1.789s0.299 3.978 0.696 6.165c0.398 2.187-0.298-3.679 1.094-4.275 1.392-0.597 5.071 0.994 6.662-1.691 1.59-2.684 1.093-2.286 0.696-3.48-0.398-1.193-1.989-3.877-5.369-3.181-3.381 0.696-6.563 2.883-5.27 3.082z"
       style="color:#000000"
       fill="url(#radialGradient640)" />
    <path
       id="path644"
       d="m4.8818 14.402l14.804-0.045s1.405-0.289 2.11-0.471c0.726-0.371 1.843-0.363 2.625-0.766 1.41-0.727 1.147-1.603 4.378-1.624-3.923-0.42-3.681 1.385-5.138 1.733-1.182 0.282-3.452 1.082-3.952 1.014-0.501-0.068-14.827 0.159-14.827 0.159z"
       fill-rule="evenodd"
       fill="#fff" />
    <path
       id="path645"
       d="m13.182 9.263s2.096 1.605 5.253 1.251c1.403-0.158 2.252-1.1146 2.82-1.1828 0.569-0.0682 1.023 0.2729 1.023 0.2729s-0.523-0.2502-1-0.1365c-0.478 0.1138-1.569 1.3224-3.184 1.2734-3.684-0.111-4.912-1.478-4.912-1.478z"
       fill-rule="evenodd"
       fill="#fff" />
    <path
       id="path646"
       d="m24.111 1.8899s3.399 2.1819 3.063 4.9092c-0.336 2.7274-3.441 4.7829-3.441 4.7829s4.102-2.5721 3.819-5.0346c-0.42-3.6505-3.441-4.6575-3.441-4.6575z"
       fill-rule="evenodd"
       fill="#fff" />
    <path
       id="path647"
       d="m32.335 6.925c-0.378-0.7133-2.182-2.1399-3.734-2.4756 2.223 0.5874 4.196 2.056 4.196 2.056l-0.462 0.4196z"
       style="color:#000000"
       fill-rule="evenodd"
       fill-opacity=".17857" />
    <path
       id="path648"
       d="m15.396 7.8346s0.949 1.1571 0.593 2.5214c0.86 0.179 1.216 0.208 1.216 0.208l0.772-0.6229s0-1.8395-2.581-2.1065z"
       fill-rule="evenodd"
       fill-opacity=".17857" />
    <path
       id="path649"
       d="m12.717 7.5165s1.691-0.5933 1.246-0.178c-0.445 0.4154 2.106 2.2846 2.106 2.2846s0 0.5929-0.118 0.7419c-0.119 0.148-4.362-1.0683-3.234-2.8485z"
       fill-rule="evenodd"
       fill-opacity=".071429" />
  </g>
  <metadata
     id="metadata99">
    <rdf:RDF>
      <cc:Work>
        <dc:format>image/svg+xml</dc:format>
        <dc:type
           rdf:resource="http://purl.org/dc/dcmitype/StillImage" />
        <cc:license
           rdf:resource="http://creativecommons.org/licenses/publicdomain/" />
        <dc:publisher>
          <cc:Agent
             rdf:about="http://openclipart.org/">
            <dc:title>Openclipart</dc:title>
          </cc:Agent>
        </dc:publisher>
        <dc:title></dc:title>
        <dc:date>2010-04-03T15:35:08</dc:date>
        <dc:description>An icon from Tango Project. Since version 0.8.90 Tango Project icons are Public Domain.</dc:description>
        <dc:source>http://openclipart.org/detail/36739/tango-user-trash-full-by-warszawianka</dc:source>
        <dc:creator>
          <cc:Agent>
            <dc:title>warszawianka</dc:title>
          </cc:Agent>
        </dc:creator>
        <dc:subject>
          <rdf:Bag>
            <rdf:li>clip art</rdf:li>
            <rdf:li>clipart</rdf:li>
            <rdf:li>externalsource</rdf:li>
            <rdf:li>full</rdf:li>
            <rdf:li>icon</rdf:li>
            <rdf:li>recycle</rdf:li>
            <rdf:li>tango</rdf:li>
            <rdf:li>trash</rdf:li>
          </rdf:Bag>
        </dc:subject>
      </cc:Work>
      <cc:License
         rdf:about="http://creativecommons.org/licenses/publicdomain/">
        <cc:permits
           rdf:resource="http://creativecommons.org/ns#Reproduction" />
        <cc:permits
           rdf:resource="http://creativecommons.org/ns#Distribution" />
        <cc:permits
           rdf:resource="http://creativecommons.org/ns#DerivativeWorks" />
      </cc:License>
    </rdf:RDF>
  </metadata>
</svg>
